<?xml version="1.0" standalone="no"?>
<!DOCTYPE svg PUBLIC "-//W3C//DTD SVG 20010904//EN"
 "http://www.w3.org/TR/2001/REC-SVG-20010904/DTD/svg10.dtd">
<svg version="1.0" xmlns="http://www.w3.org/2000/svg"
 width="972.000000pt" height="989.000000pt" viewBox="0 0 972.000000 989.000000"
 preserveAspectRatio="xMidYMid meet">
<metadata>
Created by potrace 1.15, written by Peter Selinger 2001-2017
</metadata>
<g transform="translate(0.000000,989.000000) scale(0.100000,-0.100000)"
fill="#000000" stroke="none">
<path d="M2600 9878 c-14 -6 -35 -10 -47 -9 -15 2 -23 -3 -23 -13 0 -18 -28
-35 -56 -35 -10 0 -88 -2 -172 -6 -140 -6 -157 -9 -211 -35 -33 -16 -61 -33
-62 -38 -4 -9 -115 -56 -161 -67 -16 -4 -28 -12 -28 -17 0 -6 -34 -9 -87 -7
-143 4 -410 -27 -410 -48 0 -7 4 -13 9 -13 4 0 8 -9 8 -21 0 -20 -4 -21 -90
-17 -49 3 -93 8 -97 11 -3 4 2 7 13 7 16 1 17 2 3 10 -17 10 -301 15 -359 6
-19 -3 -53 -12 -75 -20 -30 -11 -85 -15 -215 -15 -168 -1 -224 4 -216 18 2 3
-16 4 -40 2 -27 -2 -44 1 -44 8 0 17 -69 13 -87 -4 -8 -8 -19 -13 -24 -10 -5
4 -9 1 -9 -4 0 -7 -24 -11 -60 -11 l-60 0 0 -92 0 -93 73 -37 c67 -35 79 -37
177 -41 97 -3 109 -6 167 -38 70 -38 94 -73 112 -157 15 -73 14 -139 -5 -201
-8 -29 -13 -59 -10 -67 3 -8 -2 -20 -10 -26 -8 -7 -23 -21 -32 -30 -9 -10 -21
-18 -27 -18 -6 0 -20 -8 -31 -18 -26 -23 -70 -42 -100 -42 -33 0 -93 -32 -125
-67 -15 -15 -48 -64 -75 -108 l-49 -80 -1 -100 c-1 -60 4 -114 12 -137 7 -20
16 -68 20 -106 6 -66 5 -72 -20 -104 -14 -19 -37 -40 -51 -48 -23 -12 -25 -19
-25 -86 l0 -72 79 -81 c44 -45 85 -81 93 -81 15 1 68 29 55 30 -5 0 5 17 21
38 20 26 33 58 42 106 15 79 37 123 90 181 20 22 54 64 75 93 49 65 97 99 167
118 78 20 112 20 207 0 73 -16 93 -17 160 -6 100 16 136 35 124 66 -2 7 -46
33 -96 57 -104 50 -133 74 -169 138 -32 54 -40 100 -29 158 12 59 53 93 151
125 148 48 170 51 230 31 44 -15 70 -34 138 -102 46 -46 88 -83 95 -82 32 4
54 -17 85 -79 l32 -67 102 -50 c104 -51 132 -74 205 -161 28 -34 64 -61 108
-83 58 -29 73 -33 119 -28 66 7 84 -3 69 -35 -6 -13 -27 -75 -46 -138 -30 -95
-38 -136 -42 -235 -4 -66 -12 -131 -18 -145 -11 -23 -17 -25 -67 -22 -30 1
-56 7 -58 12 -2 5 -19 2 -38 -7 -30 -15 -41 -15 -82 -4 -26 7 -96 17 -157 21
-60 5 -124 11 -141 15 -30 7 -35 3 -74 -49 -23 -31 -46 -56 -51 -56 -5 0 -27
-11 -49 -25 -22 -14 -48 -25 -59 -25 -22 0 -92 -79 -89 -99 2 -8 23 -21 48
-29 24 -8 53 -23 64 -34 11 -10 23 -18 26 -18 4 0 17 -20 29 -45 42 -85 45
-203 7 -304 -18 -49 -21 -97 -6 -106 6 -3 10 -14 10 -24 0 -9 5 -22 12 -29 14
-14 36 -75 44 -122 3 -19 19 -64 36 -100 52 -114 86 -213 92 -268 15 -143
-103 -260 -298 -296 -56 -10 -91 -23 -123 -45 -24 -17 -47 -31 -52 -31 -20 0
-35 -34 -33 -78 3 -54 25 -112 62 -162 23 -31 52 -87 132 -258 11 -23 33 -56
49 -73 28 -30 79 -142 79 -174 0 -22 28 -75 40 -75 10 0 31 35 28 47 -4 14 46
98 107 183 22 30 47 68 55 83 32 63 110 119 200 144 64 17 152 1 201 -38 43
-34 93 -106 145 -210 37 -73 44 -103 83 -379 5 -30 18 -93 29 -140 12 -47 29
-121 38 -165 32 -150 100 -310 229 -540 28 -49 72 -137 98 -195 63 -140 72
-154 96 -158 32 -5 43 28 30 90 -17 83 -17 138 -1 138 7 0 11 -3 8 -8 -2 -4 2
-37 11 -72 20 -89 10 -186 -23 -217 l-24 -22 23 -46 c19 -40 25 -45 47 -40 14
3 30 13 37 22 11 14 14 13 23 -11 5 -15 10 -45 10 -68 0 -46 -28 -77 -71 -78
-19 0 -28 -7 -33 -22 -10 -40 -6 -122 9 -181 17 -66 19 -113 6 -122 -6 -3 -13
-27 -17 -53 -7 -51 -46 -136 -67 -149 -7 -4 -17 -16 -20 -26 -4 -11 -16 -21
-27 -24 -11 -3 -17 -9 -15 -14 8 -12 -65 -29 -94 -22 -31 7 -101 50 -101 61 0
5 -8 17 -18 28 -23 25 -42 92 -35 126 3 15 -2 84 -11 155 -9 70 -15 162 -14
203 3 68 0 79 -22 107 -28 34 -98 73 -133 73 -12 0 -39 -11 -59 -25 -20 -14
-43 -25 -51 -25 -8 0 -19 -6 -25 -12 -12 -16 -8 -98 5 -107 28 -19 37 -80 38
-251 0 -152 -2 -180 -18 -203 -9 -15 -15 -27 -11 -27 3 0 -11 -19 -30 -42 -20
-23 -36 -47 -36 -54 0 -6 -7 -24 -14 -40 -24 -46 2 -78 114 -137 104 -55 266
-58 400 -9 24 9 191 2 245 -10 27 -6 56 -17 63 -25 7 -7 19 -13 26 -13 8 0 33
-8 57 -19 45 -19 50 -19 204 4 48 7 122 40 137 60 13 17 9 54 -8 80 -9 13 -13
29 -9 35 8 12 57 -38 103 -105 15 -22 35 -49 45 -60 11 -11 46 -56 79 -100 65
-87 148 -189 218 -269 25 -28 63 -73 85 -101 22 -27 48 -59 58 -70 66 -73 127
-205 127 -279 0 -17 -9 -47 -20 -66 -53 -91 -75 -167 -105 -360 -4 -25 -18
-65 -31 -89 -27 -49 -29 -55 -13 -45 6 3 3 -8 -6 -25 -9 -17 -13 -35 -11 -40
3 -5 -3 -20 -14 -34 -11 -14 -20 -30 -20 -35 0 -5 -6 -15 -14 -21 -21 -17 -28
-54 -10 -47 9 3 12 2 9 -5 -4 -6 1 -17 11 -24 18 -13 18 -14 2 -15 -12 0 -18
-8 -18 -24 0 -22 -23 -41 -39 -32 -10 7 -34 -52 -27 -69 3 -8 17 -15 31 -15
14 0 25 -4 25 -10 0 -5 -13 -10 -30 -10 -22 0 -28 -4 -24 -15 4 -9 1 -15 -7
-15 -20 0 -43 -52 -28 -61 6 -4 8 -12 5 -18 -4 -6 -2 -11 3 -11 6 0 11 9 11
19 0 28 12 32 38 11 26 -21 28 -30 7 -30 -8 0 -22 -17 -32 -37 -14 -29 -24
-38 -43 -38 -19 0 -26 -6 -28 -25 -3 -24 -3 -25 12 -5 l15 20 1 -20 c1 -11 4
-14 7 -7 2 6 14 12 24 12 19 0 19 -1 2 -25 -11 -15 -24 -22 -35 -19 -10 3 -21
-3 -27 -15 -15 -27 -14 -31 4 -25 8 4 15 1 15 -6 0 -6 5 -8 11 -5 6 4 8 13 5
21 -3 8 -1 14 5 14 22 0 22 -34 1 -48 -12 -8 -22 -18 -22 -23 0 -4 -6 -20 -12
-36 -7 -15 -13 -62 -14 -103 0 -41 -6 -94 -13 -118 -8 -32 -8 -48 0 -64 6 -11
7 -18 1 -14 -11 7 -25 -21 -16 -35 3 -5 1270 -9 3105 -9 l3099 0 -2 231 -3
230 -70 28 c-38 15 -135 59 -215 98 -157 78 -267 123 -345 143 -27 7 -104 28
-170 47 -178 52 -271 73 -321 73 -25 0 -64 4 -87 9 -23 6 -59 13 -79 16 -25 4
-76 34 -156 93 -66 48 -145 102 -175 121 -62 38 -77 60 -135 206 -22 55 -58
138 -80 185 -46 99 -99 219 -136 308 -51 123 -203 351 -306 459 -66 69 -74 81
-65 101 6 13 19 22 32 22 12 0 34 11 48 24 15 14 45 27 68 31 23 4 67 15 97
25 30 10 73 21 94 25 22 4 67 17 100 30 34 13 89 30 124 36 34 7 62 17 62 21
0 15 72 38 123 39 45 1 117 -10 245 -37 21 -4 32 -3 32 5 0 14 86 15 95 1 11
-18 60 -11 97 15 20 14 43 25 51 25 8 0 29 7 47 16 43 22 193 13 279 -16 33
-11 79 -20 101 -20 23 0 60 -9 83 -19 24 -11 55 -21 71 -23 25 -3 29 2 42 40
13 38 13 44 -1 58 -8 8 -15 26 -15 39 0 13 -11 32 -25 43 -14 11 -25 22 -25
25 0 15 -50 57 -67 57 -11 0 -40 7 -64 16 -59 21 -218 31 -247 15 -14 -8 -22
-8 -22 -1 0 14 -43 13 -59 -3 -11 -9 -14 -9 -18 1 -3 6 -9 12 -15 12 -6 0 -19
11 -30 25 -25 32 -38 32 -38 0 0 -16 -6 -25 -15 -25 -11 0 -15 11 -15 40 0 38
2 40 30 40 28 0 30 2 30 38 0 32 4 39 33 51 43 19 65 39 83 77 9 18 23 34 31
36 18 4 62 102 63 141 0 25 3 27 40 27 37 0 40 -2 40 -29 0 -23 17 -46 80
-109 44 -43 80 -82 80 -85 0 -15 64 -67 83 -67 12 0 28 -9 34 -19 7 -11 25
-26 40 -33 24 -11 28 -20 31 -61 2 -26 7 -47 13 -47 5 0 9 -18 9 -40 0 -29 4
-40 15 -40 8 0 15 -7 15 -15 0 -11 11 -15 40 -15 22 0 40 -4 40 -10 0 -5 20
-10 44 -10 26 0 48 -6 56 -15 10 -12 10 -15 -4 -15 -9 0 -16 -7 -16 -15 0 -11
12 -15 49 -15 50 0 64 -9 86 -54 6 -12 22 -22 38 -24 l27 -3 0 1735 0 1736
-29 0 c-28 0 -91 -49 -91 -71 0 -5 -10 -9 -23 -9 -13 0 -27 -4 -33 -8 -5 -4
-27 -14 -49 -21 -22 -8 -58 -26 -80 -41 -22 -15 -61 -37 -87 -50 -27 -13 -48
-27 -48 -32 0 -4 -13 -8 -29 -8 -17 0 -32 -4 -35 -9 -3 -5 -25 -19 -48 -31
-49 -25 -54 -31 -68 -82 -6 -21 -16 -38 -22 -38 -16 0 -37 -32 -38 -57 0 -14
-6 -23 -15 -23 -11 0 -15 -11 -15 -40 0 -22 -4 -40 -10 -40 -5 0 -10 -18 -10
-40 0 -22 5 -40 10 -40 6 0 10 -18 10 -40 0 -29 4 -40 15 -40 8 0 15 8 15 17
0 14 2 15 12 4 11 -11 11 -14 1 -18 -20 -7 -15 -22 15 -49 18 -17 23 -27 15
-31 -7 -2 -13 -22 -13 -44 0 -28 -4 -39 -15 -39 -8 0 -15 -5 -15 -11 0 -6 -11
-20 -25 -31 -20 -16 -25 -28 -25 -67 0 -26 -7 -56 -15 -67 -8 -10 -15 -29 -15
-41 0 -13 -6 -23 -14 -23 -10 0 -16 -22 -21 -77 -4 -43 -9 -81 -11 -85 -9 -14
-34 5 -34 26 0 12 -6 28 -12 35 -10 11 -10 14 -1 18 15 5 18 83 4 83 -19 0
-71 62 -71 85 0 17 -4 23 -14 19 -9 -3 -17 6 -24 25 -7 19 -7 31 -1 31 5 0 9
36 8 83 -1 56 -4 74 -9 57 -8 -24 -8 -24 -9 -2 -1 19 -6 22 -41 22 l-40 0 0
40 c0 29 -4 40 -15 40 -23 0 -18 20 10 41 19 16 25 31 28 77 l3 57 2 -62 c1
-35 7 -63 12 -63 6 0 10 7 10 15 0 8 7 15 15 15 11 0 15 11 15 40 0 29 -4 40
-15 40 -8 0 -15 4 -15 8 0 15 50 32 74 26 17 -4 29 1 44 20 11 14 25 26 31 26
6 0 11 5 11 10 0 6 6 10 14 10 7 0 29 15 49 34 45 42 55 82 63 241 5 97 3 131
-10 177 -10 32 -22 60 -27 63 -5 4 -9 16 -9 29 0 12 -4 26 -9 32 -6 5 -12 20
-14 34 -10 54 -27 107 -41 125 -9 11 -16 28 -16 38 0 10 -9 30 -19 45 -11 15
-29 71 -40 125 -12 54 -29 105 -39 116 -9 10 -26 31 -37 46 -11 16 -25 33 -30
39 -61 63 -101 172 -112 305 -5 61 -3 71 16 90 11 11 21 28 21 36 0 8 4 15 9
15 4 0 20 22 34 49 22 43 23 52 11 62 -13 10 -12 15 1 36 16 23 26 53 27 80 1
7 8 15 15 17 10 4 13 21 12 58 -4 101 -11 106 -96 76 -85 -30 -148 -27 -215
11 -30 17 -63 31 -72 31 -20 0 -80 39 -72 47 3 3 -1 18 -9 34 -23 43 -19 113
10 172 30 64 107 156 149 179 54 30 208 70 286 75 71 5 77 3 112 -23 40 -31
77 -97 103 -184 22 -76 35 -100 56 -100 10 0 21 -4 24 -10 8 -13 -23 -77 -44
-93 -10 -7 -20 -20 -24 -29 -5 -14 -1 -18 14 -18 24 0 63 -29 67 -50 4 -20 45
-104 54 -110 13 -10 20 -85 9 -112 -6 -16 -17 -28 -26 -28 -8 0 -15 -4 -15
-10 0 -5 -9 -10 -20 -10 -27 0 -25 -24 3 -37 74 -34 138 -46 214 -40 68 5 84
3 122 -16 25 -12 49 -30 55 -41 6 -10 20 -29 31 -41 27 -31 30 -98 8 -250 -18
-132 -25 -287 -13 -295 4 -3 19 -31 34 -62 15 -32 33 -58 39 -58 7 0 27 -14
44 -31 41 -37 87 -57 119 -51 l24 4 0 1739 0 1739 -439 0 -440 0 10 -32 c19
-68 13 -82 -41 -106 -38 -17 -70 -22 -130 -22 -71 0 -87 4 -140 32 -35 19 -60
40 -60 49 0 9 -9 24 -20 34 -11 10 -20 24 -20 32 0 19 -3030 20 -3060 1 -16
-10 -24 -10 -40 0 -24 15 -406 17 -489 2 -31 -5 -121 -17 -201 -25 -115 -13
-155 -14 -195 -5 -67 16 -455 23 -455 8 0 -6 -14 -8 -37 -4 -141 25 -350 40
-367 28 -6 -5 -38 -18 -71 -28 -33 -10 -69 -28 -81 -41 -11 -12 -41 -27 -66
-33 -26 -7 -54 -21 -64 -31 -9 -10 -23 -19 -31 -19 -7 0 -13 -6 -13 -14 0 -8
-10 -27 -22 -43 -13 -15 -28 -37 -34 -47 -14 -27 -80 -44 -124 -33 -78 20 -98
20 -109 -1 -6 -11 -13 -39 -17 -63 -11 -71 -48 -119 -91 -119 -14 0 -41 -19
-72 -51 -44 -45 -54 -51 -102 -56 -30 -3 -89 0 -131 6 -62 9 -86 8 -120 -3
-59 -19 -184 -26 -237 -14 -29 7 -59 26 -87 53 l-44 42 0 75 c0 62 3 78 20 93
16 15 25 16 43 8 53 -26 89 -36 95 -27 4 5 17 9 30 8 26 -1 28 14 7 42 -14 18
-16 18 -29 2 -7 -10 -17 -18 -21 -18 -4 0 -2 7 5 15 10 12 6 18 -22 35 -18 11
-38 18 -45 15 -7 -2 -15 0 -18 5 -7 12 45 89 60 90 6 0 38 4 73 10 70 10 112
-2 146 -39 27 -29 95 -30 97 -1 3 38 4 42 22 54 9 7 17 19 17 26 0 12 99 9
204 -7 37 -5 39 -4 34 19 -4 21 -1 24 20 20 21 -4 23 -2 20 24 -2 18 -8 28
-17 26 -7 -1 -19 2 -26 8 -18 15 -165 21 -195 8z m3939 -67 c28 -27 51 -56 51
-65 0 -9 4 -16 8 -16 10 0 42 -65 42 -84 0 -8 -17 -21 -37 -30 -21 -8 -50 -23
-65 -33 -23 -15 -32 -15 -61 -5 -21 8 -56 10 -95 6 -41 -5 -62 -3 -62 4 0 6
-15 13 -32 17 -42 8 -108 36 -108 45 0 4 7 24 15 44 11 26 12 36 3 36 -6 0 10
20 36 45 27 25 57 45 67 45 11 0 19 4 19 9 0 12 71 28 127 30 36 1 47 -5 92
-48z m-2654 -259 c17 -12 35 -61 35 -97 0 -48 -33 -56 -89 -21 -22 14 -48 26
-56 26 -9 0 -18 7 -21 15 -16 40 94 104 131 77z m-1672 -411 c6 -6 19 -11 28
-11 10 0 42 -23 73 -51 69 -63 96 -128 96 -229 0 -121 -42 -169 -173 -196 -41
-9 -76 -22 -83 -32 -9 -12 -27 -17 -72 -17 -74 0 -104 21 -100 71 2 36 -18 68
-38 60 -17 -7 -104 23 -128 43 -32 28 -45 65 -42 122 3 57 28 108 54 109 6 0
12 8 12 19 0 15 11 20 61 25 53 6 65 12 97 46 20 21 53 43 72 49 42 12 128 7
143 -8z m1113 -2361 c61 3 72 1 55 -9 -7 -5 -28 -6 -47 -4 -27 4 -34 1 -34
-12 0 -11 5 -15 15 -11 9 3 15 0 15 -8 0 -8 -8 -13 -17 -12 -12 0 -19 -7 -21
-22 -2 -12 -8 -20 -13 -17 -5 3 -18 1 -31 -6 -21 -11 -21 -12 -2 -26 18 -13
18 -15 2 -27 -10 -7 -15 -16 -12 -19 3 -3 -4 -10 -15 -17 -12 -6 -21 -17 -21
-24 0 -7 -20 -17 -45 -23 l-45 -10 0 29 c0 23 -4 29 -17 26 -13 -3 -17 -12
-16 -31 1 -15 -2 -27 -7 -27 -4 0 -11 -11 -14 -25 -3 -13 -14 -32 -25 -42 -29
-29 -34 -53 -11 -53 11 0 20 -3 20 -7 0 -5 3 -19 6 -33 6 -22 5 -23 -7 -8 -8
9 -25 18 -39 20 -14 2 -24 9 -22 16 1 6 -7 12 -18 12 -23 0 -26 -23 -6 -59
l14 -24 6 21 c10 29 29 17 23 -14 -3 -16 2 -28 12 -34 14 -8 14 -9 -1 -10 -10
0 -18 -8 -18 -17 -1 -17 -1 -17 -11 0 -8 13 -14 15 -30 7 -20 -11 -22 -8 -20
25 l2 20 -16 -20 c-11 -13 -14 -30 -10 -52 5 -28 2 -34 -24 -47 -16 -9 -31
-21 -34 -28 -2 -7 -7 -10 -11 -7 -11 10 4 37 25 42 11 3 19 14 19 26 0 30 -34
27 -48 -3 -8 -18 -17 -23 -34 -20 -13 2 -17 2 -10 -2 6 -3 9 -10 6 -15 -3 -6
0 -16 6 -24 13 -16 6 -65 -10 -65 -6 0 -11 -10 -11 -22 -1 -16 -3 -18 -6 -6
-2 9 2 29 10 45 16 32 12 54 -9 46 -10 -4 -12 0 -8 11 3 9 3 24 -1 34 -10 22
-10 62 0 86 5 11 3 27 -4 38 -6 10 -9 23 -7 27 3 5 -3 16 -14 26 -29 26 -25
42 14 49 19 4 37 12 39 19 3 7 6 3 6 -8 1 -17 3 -17 11 -5 16 24 12 63 -4 57
-10 -4 -13 -1 -9 9 5 14 16 18 40 15 8 -1 10 5 7 14 -7 18 7 20 24 3 18 -18
14 -1 -5 22 -10 11 -25 20 -35 20 -19 0 -24 15 -8 25 6 3 10 1 10 -5 0 -7 8
-9 20 -5 15 5 20 2 20 -12 1 -16 3 -15 20 5 14 17 25 21 44 16 23 -5 26 -3 24
17 -4 30 -17 40 -42 33 -13 -4 -16 -2 -11 6 8 13 112 9 165 -6 21 -5 23 -4 13
7 -19 20 -15 39 8 39 16 0 19 -4 14 -20 -4 -12 -2 -20 5 -20 6 0 8 -11 5 -27
-4 -21 0 -17 15 15 12 23 26 42 33 42 8 0 7 -4 -3 -11 -12 -9 -12 -10 -1 -7
22 6 25 28 4 28 -17 1 -17 1 0 11 10 6 25 8 32 5 15 -5 42 30 37 48 -2 5 6 6
17 3 11 -3 20 -2 19 2 -2 18 3 24 11 13 5 -8 24 -13 47 -12z m174 -829 c0 -28
5 -53 10 -56 13 -8 3 -25 -16 -25 -8 0 -14 8 -14 18 0 27 -8 31 -34 19 -21
-10 -22 -13 -7 -23 15 -11 14 -15 -7 -44 -21 -28 -22 -31 -5 -29 25 3 73 -11
73 -22 0 -5 -6 -9 -14 -9 -8 0 -16 -7 -20 -15 -9 -24 -26 -17 -26 10 0 21 -5
25 -27 25 -40 0 -53 -12 -56 -48 -2 -28 -6 -32 -39 -37 -25 -4 -38 -12 -38
-22 0 -10 -6 -13 -15 -9 -15 5 -24 3 -73 -23 -13 -7 -32 -9 -42 -6 -10 3 -21
1 -24 -4 -4 -6 -12 -9 -19 -7 -7 1 -9 1 -4 -1 25 -15 -23 -63 -72 -73 -17 -4
-25 -11 -23 -22 1 -10 -9 -20 -29 -27 -18 -6 -33 -11 -34 -11 -2 0 -5 12 -8
26 -3 18 -1 24 9 20 9 -3 14 1 14 12 0 15 2 15 10 2 10 -15 14 -8 11 21 -1 8
8 24 19 34 22 20 26 50 9 60 -12 8 21 45 34 38 4 -2 11 6 16 19 11 30 29 45
63 53 16 4 25 11 22 17 -3 5 3 12 15 15 12 3 21 12 21 20 0 10 6 13 15 9 9 -3
18 1 21 8 14 36 64 24 64 -15 0 -13 5 -17 17 -12 11 4 12 8 5 11 -7 2 -12 12
-12 23 0 10 -5 19 -11 19 -5 0 -7 5 -3 12 6 9 9 9 12 0 2 -7 10 -12 18 -12 9
0 12 5 9 10 -3 6 -5 10 -3 11 2 0 30 3 63 6 66 6 76 10 56 22 -19 12 -4 31 25
31 15 0 24 6 24 15 0 8 5 15 10 15 6 0 10 -22 10 -49z m4458 -120 c23 -5 42
-4 42 0 0 5 18 9 40 9 29 0 40 -4 40 -15 0 -10 -10 -15 -31 -15 l-31 0 23 -19
24 -20 -32 -11 c-18 -7 -33 -16 -33 -21 0 -5 -10 -9 -23 -9 -13 0 -29 -6 -36
-12 -11 -10 -14 -10 -18 0 -3 6 -16 12 -29 12 -20 0 -24 5 -24 31 0 27 -2 29
-15 15 -8 -8 -15 -22 -15 -30 0 -9 -7 -16 -15 -16 -19 0 -19 2 1 43 9 19 31
42 48 50 37 19 31 18 84 8z m-5191 -246 c-5 -50 -3 -55 15 -55 10 0 16 -5 13
-10 -4 -6 -1 -26 5 -44 9 -27 8 -39 -2 -55 -10 -17 -10 -23 1 -33 12 -11 13
-10 8 5 -4 11 -1 17 9 17 12 0 15 -6 10 -26 -6 -21 -4 -25 11 -22 10 2 19 13
21 26 3 22 22 32 22 11 0 -5 5 -7 10 -4 21 13 9 -6 -29 -44 -40 -41 -114 -72
-131 -55 -5 5 -12 48 -16 97 -7 85 -6 87 15 87 12 0 20 4 17 9 -3 4 -8 35 -11
69 -6 52 -4 62 12 71 10 6 20 11 22 11 2 0 1 -25 -2 -55z m3988 -17 c2 -7 12
-40 21 -72 15 -55 18 -58 30 -41 14 18 14 18 32 -1 15 -15 16 -23 8 -37 -9
-14 -7 -20 7 -28 9 -6 17 -17 17 -24 0 -11 -13 -15 -54 -15 -52 0 -54 1 -60
31 -3 17 -6 52 -7 78 -1 92 -18 89 -20 -4 l-2 -90 -8 65 c-4 36 -11 84 -14
108 -6 40 -5 42 20 42 14 0 28 -6 30 -12z m-4006 -447 c2 -1 -2 -7 -8 -15 -8
-10 -9 -16 -1 -21 5 -3 7 -17 4 -31 -5 -19 -3 -23 10 -18 15 6 22 -6 16 -31
-10 -46 -9 -53 6 -51 12 1 17 -10 20 -43 4 -43 4 -43 -24 -38 -41 8 -134 45
-156 62 -19 14 -19 16 -2 34 17 19 17 20 -3 38 -24 20 -28 43 -6 43 8 0 15 -5
15 -11 0 -5 4 -8 10 -4 5 3 7 12 4 19 -3 8 0 17 7 22 8 4 10 3 5 -4 -8 -13 12
-16 31 -4 6 4 16 19 22 34 9 24 14 26 50 19z m177 -13 c-13 -7 -14 -13 -6 -23
7 -8 8 -19 4 -26 -5 -9 1 -10 22 -5 47 12 107 13 131 3 28 -12 20 -27 -15 -27
-15 0 -36 -7 -46 -15 -19 -14 -19 -15 8 -15 15 0 25 4 21 10 -3 6 -2 10 4 10
37 0 5 -47 -53 -75 -38 -19 -38 -19 -32 8 3 12 3 17 0 10 -3 -7 -11 -10 -19
-7 -16 6 -29 -12 -15 -21 7 -4 7 -13 0 -26 -6 -11 -15 -17 -19 -14 -19 11 -34
-28 -33 -85 1 -53 -1 -58 -16 -49 -13 8 -17 23 -15 67 3 84 13 163 24 199 6
18 8 41 4 52 -4 15 1 23 22 34 30 15 57 10 29 -5z m1428 -243 c-8 -19 5 -19
20 0 12 16 56 10 56 -7 0 -6 -9 -8 -19 -5 -13 3 -18 1 -14 -9 2 -7 11 -10 19
-7 19 7 30 -25 15 -48 -7 -13 -8 -19 0 -19 5 0 8 -4 5 -9 -3 -5 -2 -38 3 -73
5 -34 6 -67 3 -73 -4 -5 -5 -18 -3 -29 1 -11 -2 -16 -8 -12 -14 9 -14 -1 3
-48 7 -22 21 -45 30 -51 18 -14 21 -26 5 -23 -6 2 -14 -3 -16 -9 -3 -7 2 -13
10 -13 8 0 17 -6 20 -14 4 -10 0 -12 -14 -9 -12 3 -19 0 -19 -8 0 -8 -3 -25
-6 -39 -5 -25 -5 -25 11 -5 15 19 16 15 10 -60 -5 -58 -12 -86 -26 -101 -11
-11 -16 -24 -12 -27 9 -9 -27 -36 -49 -37 -10 0 -18 -4 -18 -10 0 -5 -16 -9
-35 -8 -37 1 -47 13 -17 21 11 3 7 5 -10 6 -49 2 -58 11 -58 54 0 38 1 39 15
21 13 -18 14 -16 16 26 0 25 0 66 -1 92 -1 26 6 60 15 78 9 18 14 34 11 37 -3
3 3 13 13 22 49 44 49 306 0 275 -5 -3 -9 4 -9 16 0 13 4 19 11 14 16 -10 29
15 29 57 0 20 3 39 7 42 10 11 13 8 7 -8z m-1523 -345 c5 0 9 10 9 23 0 22 1
22 13 -3 12 -24 11 -59 -8 -172 -7 -38 -6 -41 14 -35 11 3 21 1 21 -4 0 -5 -9
-9 -19 -9 -11 0 -22 -4 -25 -9 -9 -13 18 -61 31 -57 6 3 17 -2 24 -10 7 -8 20
-13 29 -12 9 2 25 -4 35 -12 14 -12 19 -12 23 -2 3 10 7 10 18 1 12 -9 14 -5
14 24 0 36 14 57 23 35 3 -7 6 -3 6 10 1 25 8 26 45 12 25 -9 37 -40 16 -40
-5 0 -10 -5 -10 -10 0 -6 11 -3 24 5 22 15 24 14 30 -7 9 -36 7 -46 -11 -51
-10 -3 -2 -5 17 -6 19 0 50 3 68 9 33 9 72 -3 72 -22 0 -11 -149 -9 -240 2
-89 11 -209 55 -253 91 l-31 26 12 109 c7 60 18 132 25 159 l12 50 3 -47 c2
-27 7 -48 13 -48z m4829 -276 c0 -8 5 -12 10 -9 13 8 94 -76 138 -145 34 -53
35 -57 33 -149 -1 -56 -6 -100 -13 -108 -9 -11 -9 -17 3 -24 9 -5 10 -9 2 -9
-7 0 -23 -10 -37 -23 -30 -28 -84 -28 -139 -2 -20 9 -42 15 -49 12 -7 -2 -26
3 -41 12 l-29 16 4 110 c4 106 6 114 53 223 45 104 65 134 65 96z m1192 -80
c3 -48 -9 -64 -48 -64 -21 0 -54 -28 -54 -45 0 -7 -7 -18 -15 -25 -8 -7 -15
-23 -15 -36 0 -19 -5 -24 -24 -24 -23 0 -24 -4 -31 -80 l-7 -80 -48 0 c-28 0
-50 -5 -52 -12 -2 -6 -10 -8 -16 -4 -8 5 -12 37 -12 92 0 68 3 84 15 84 11 0
15 11 15 40 0 22 4 40 9 40 12 0 71 59 71 71 0 5 11 9 24 9 14 0 33 11 44 25
15 18 29 25 56 25 25 0 36 4 36 15 0 9 9 15 24 15 21 0 24 -5 28 -46z m-6069
-8 c61 -35 137 -54 275 -67 67 -7 122 -16 122 -20 0 -5 -11 -9 -25 -9 -14 0
-25 -5 -25 -11 0 -5 -13 -15 -30 -20 -31 -11 -38 -23 -20 -34 15 -9 12 -25 -5
-25 -8 0 -14 -4 -12 -9 1 -5 -7 -17 -19 -27 -24 -23 -39 -58 -57 -141 -9 -39
-11 -63 -4 -63 5 0 7 -13 3 -30 -3 -17 -2 -39 3 -48 15 -28 29 -226 16 -235
-5 -5 1 -5 14 -2 20 6 23 4 18 -10 -4 -9 -7 -21 -7 -26 0 -5 -5 -9 -11 -9 -6
0 -8 7 -5 15 4 11 0 15 -12 13 -13 -2 -16 3 -14 24 2 15 -1 35 -7 45 -9 15
-11 14 -12 -12 l-1 -30 -9 30 c-5 17 -6 37 -4 46 3 9 -1 36 -9 60 -9 25 -20
68 -26 97 -7 28 -15 52 -20 52 -4 0 -11 7 -14 16 -4 10 -2 13 6 8 8 -5 9 10 4
57 -10 84 -10 154 -2 168 4 6 3 11 -3 11 -12 0 -24 -35 -25 -70 -1 -14 -5 -23
-10 -20 -6 3 -9 24 -7 48 1 25 -2 42 -8 42 -6 0 -11 -8 -11 -19 0 -10 -3 -40
-7 -67 -6 -45 -5 -48 10 -35 10 7 17 11 17 8 0 -3 3 -13 7 -23 4 -12 3 -15 -5
-10 -8 5 -10 -2 -7 -21 2 -15 7 -45 10 -65 3 -21 11 -37 17 -35 6 1 13 -4 16
-12 2 -8 0 -11 -6 -7 -15 9 -25 -25 -11 -38 9 -8 10 -8 5 2 -4 6 -2 12 3 12 6
0 11 -9 11 -19 0 -32 -32 -18 -45 20 -26 72 -35 106 -35 127 0 12 -4 22 -8 22
-8 0 -34 122 -52 250 -6 41 -13 85 -16 98 -6 28 -2 28 49 -2z m1780 -933 c25
4 37 1 41 -9 3 -8 12 -14 21 -14 8 0 15 -4 15 -8 0 -5 11 -14 24 -21 54 -30
95 -209 52 -233 -15 -8 -16 -12 -5 -20 10 -7 6 -8 -13 -4 -52 12 -81 -18 -30
-31 26 -7 26 -7 -13 -16 -94 -20 -103 -20 -134 2 -18 13 -32 17 -36 11 -13
-21 -82 -11 -114 16 -46 38 -54 59 -62 164 -9 109 3 170 33 170 18 0 72 -66
84 -103 6 -20 28 -47 37 -47 2 0 8 23 11 52 8 57 36 115 47 96 4 -6 21 -9 42
-5z m-368 -34 c19 -17 35 -38 35 -46 0 -8 4 -12 10 -8 16 10 42 -56 52 -133 7
-62 6 -78 -7 -98 -8 -13 -22 -24 -29 -24 -15 0 -76 65 -76 80 0 6 -5 10 -11
10 -7 0 -9 -10 -7 -25 3 -14 3 -25 1 -25 -10 0 -32 29 -51 67 -24 46 -41 173
-24 173 6 0 13 -9 17 -19 3 -11 13 -25 21 -32 14 -11 15 -6 8 49 -8 74 4 80
61 31z m740 -29 c6 -5 24 -10 40 -12 18 -2 30 -9 30 -18 0 -8 8 -22 17 -31 11
-10 17 -33 19 -70 2 -71 1 -73 -16 -59 -13 10 -15 9 -16 -11 -1 -13 -1 -28 0
-33 1 -5 -6 -5 -16 -1 -26 11 -55 8 -64 -7 -4 -7 -3 -15 3 -19 6 -4 -11 -9
-38 -11 -51 -4 -84 7 -84 29 0 17 -17 17 -23 1 -3 -7 -6 27 -6 75 -1 85 12
139 41 174 12 14 92 9 113 -7z m2252 -135 c9 -19 22 -35 29 -35 17 0 36 -69
40 -140 6 -118 3 -247 -8 -288 -6 -23 -8 -63 -6 -87 4 -35 2 -45 -11 -49 -28
-9 -86 1 -127 21 -21 11 -55 23 -75 27 -63 11 -70 28 -71 167 -1 86 2 124 10
127 7 2 12 11 12 20 1 10 9 35 20 57 11 22 20 51 20 65 1 23 2 23 10 5 7 -17
9 -16 9 10 1 19 9 35 21 43 12 7 25 24 30 37 10 26 30 34 30 13 1 -7 8 -1 16
15 19 36 31 34 51 -8z"/>
<path d="M427 5810 c-70 -21 -81 -70 -36 -167 31 -67 37 -100 58 -293 6 -52
15 -96 21 -98 5 -2 10 -10 10 -17 0 -8 12 -27 28 -43 39 -41 70 -31 90 28 8
25 20 59 27 75 8 17 16 46 18 65 11 86 62 227 107 296 38 57 47 79 45 109 -1
20 -8 41 -16 46 -18 11 -314 10 -352 -1z"/>
<path d="M400 3532 c-32 -22 -54 -48 -74 -88 l-29 -57 18 -171 c10 -94 23
-241 29 -326 7 -93 18 -167 26 -185 40 -81 109 -97 182 -42 23 18 47 42 53 52
5 11 14 26 19 34 5 8 10 26 11 40 1 14 12 87 25 161 12 74 28 178 34 230 7 52
23 116 35 142 30 67 28 110 -9 148 -43 44 -131 81 -209 87 -61 5 -69 3 -111
-25z"/>
<path d="M1360 3540 c-52 -11 -90 -28 -142 -63 -60 -42 -67 -75 -31 -154 21
-45 28 -82 35 -168 4 -60 10 -121 13 -135 3 -14 9 -71 13 -126 9 -107 6 -102
81 -191 26 -30 112 -63 170 -64 32 -1 63 7 99 25 28 14 57 26 65 26 7 0 21 6
31 13 16 12 17 17 5 38 -7 13 -12 28 -11 32 1 5 -2 6 -7 2 -6 -3 -23 20 -38
52 -27 58 -27 59 -25 243 2 189 14 261 49 295 8 8 15 29 15 46 1 45 -47 82
-148 114 -82 26 -113 28 -174 15z"/>
<path d="M3585 1135 c-27 -8 -77 -21 -110 -29 -33 -8 -105 -31 -160 -51 -125
-46 -252 -88 -330 -111 -33 -9 -105 -32 -160 -50 -55 -18 -147 -46 -205 -64
-58 -17 -123 -38 -145 -45 -22 -8 -159 -54 -305 -103 -146 -49 -297 -105 -335
-125 -153 -77 -333 -232 -410 -352 -21 -33 -58 -90 -82 -127 -23 -37 -43 -70
-43 -73 0 -3 492 -5 1093 -5 l1092 0 -1 38 c-3 97 -5 113 -13 108 -25 -16 -40
52 -27 129 3 17 8 53 11 80 8 65 63 294 77 320 8 14 8 20 -1 23 -17 6 -13 29
8 44 19 14 37 54 33 76 -2 6 2 12 7 12 6 0 13 17 17 37 4 21 32 86 62 145 44
89 52 111 42 123 -15 18 -49 18 -115 0z"/>
<path d="M320 562 c-14 -1 -61 -12 -104 -22 -44 -11 -110 -20 -148 -20 l-68 0
0 -260 0 -260 286 0 286 0 -8 147 -7 147 -43 85 c-57 114 -138 191 -194 183z"/>
</g>
</svg>
